# File created by Blade
# Date/Time:  Wed Jan 21 14:58:10 2015
# Frame Rate: 120.000 fps
#------------------------------------------------------
:FULLY-SPECIFIED
:DEGREES
630
root 18.326376 35.215151 -21.813567 -156.093037 64.613990 -159.996746
Spine -11.224318 -51.831073 5.912043
Head 21.375154 -39.800025 1.861998
LeftShoulder 7.603988 -38.884393 11.844962
LeftArm 31.100942 19.002735 -36.946226
LeftForeArm 15.386926 -0.000000 -1.294340
LeftHand -10.986592 0.000000 -0.752682
LeftHandThumb1 -26.253704 0.000000 33.147579
RightShoulder -17.092674 -13.569871 -14.637375
RightArm -17.750936 36.370238 20.607092
RightForeArm -29.527590 -0.000000 6.195506
RightHand -12.793038 -0.000000 3.297072
RightHandThumb1 -24.326973 -0.000000 -32.862282
LeftUpLeg 9.898878 43.171882 8.147171
LeftLeg -2.511761 -0.000000 0.000000
LeftFoot -34.270741 48.391743 -24.245370
LeftToeBase 21.331359 -0.000000 -0.000000
RightUpLeg -15.097647 23.494665 2.152225
RightLeg 0.915652 -0.000000 -0.000000
RightFoot -1.202987 10.174014 20.361674
RightToeBase 32.289328 -0.000000 -0.000000
631
root 18.358775 35.218297 -21.815033 -156.220519 64.284879 -160.161013
Spine -11.361090 -51.635834 6.019286
Head 21.258759 -39.655228 1.897312
LeftShoulder 7.533822 -38.837828 11.904268
LeftArm 31.121546 19.075694 -36.608350
LeftForeArm 15.311358 -0.000000 -1.307967
LeftHand -10.844494 0.000000 -0.846458
LeftHandThumb1 -26.253704 0.000000 33.147579
RightShoulder -16.999556 -13.360607 -14.569492
RightArm -17.743319 36.298047 20.334072
RightForeArm -29.648344 -0.000000 6.141443
RightHand -12.754975 -0.000000 3.354670
RightHandThumb1 -24.326973 -0.000000 -32.862282
LeftUpLeg 9.881443 43.115993 8.238123
LeftLeg -2.574059 -0.000000 0.000000
LeftFoot -34.058998 48.200179 -24.069359
LeftToeBase 21.295115 -0.000000 -0.000000
RightUpLeg -15.057012 23.425618 2.184093
RightLeg 0.895149 -0.000000 -0.000000
RightFoot -1.329064 10.017435 20.329548
RightToeBase 32.131988 -0.000000 -0.000000
632
root 18.389279 35.223192 -21.816534 -156.354632 63.911413 -160.347996
Spine -11.557523 -51.493363 6.191660
Head 21.182230 -39.460667 1.886099
LeftShoulder 7.468918 -38.974634 11.976013
LeftArm 30.870789 19.197864 -36.383739
LeftForeArm 15.298231 -0.000000 -1.249766
LeftHand -11.125490 -0.000000 -0.676985
LeftHandThumb1 -26.253704 0.000000 33.147579
RightShoulder -16.921854 -13.229082 -14.528151
RightArm -17.608680 36.265788 20.191084
RightForeArm -29.704434 -0.000000 6.124482
RightHand -12.754911 -0.000000 3.404212
RightHandThumb1 -24.326973 -0.000000 -32.862282
LeftUpLeg 9.833581 43.042773 8.317213
LeftLeg -2.647307 -0.000000 0.000000
LeftFoot -33.903108 47.978672 -23.961199
LeftToeBase 21.358253 -0.000000 -0.000000
RightUpLeg -15.023232 23.321881 2.205981
RightLeg 0.859657 -0.000000 -0.000000
RightFoot -1.421535 9.877548 20.304968
RightToeBase 31.806595 -0.000000 -0.000000
633
root 18.419468 35.227040 -21.815749 -156.534058 63.517455 -160.573286
Spine -11.700771 -51.295100 6.284120
Head 21.085372 -39.259497 1.936906
LeftShoulder 7.457867 -39.029972 12.038777
LeftArm 30.668488 19.188450 -36.131688
LeftForeArm 15.442670 0.000000 -1.257710
LeftHand -11.006703 -0.000000 -0.571723
LeftHandThumb1 -26.253704 0.000000 33.147579
RightShoulder -16.827462 -13.007222 -14.457455
RightArm -17.617481 36.147783 19.935194
RightForeArm -29.760131 -0.000000 6.140767
RightHand -12.856434 -0.000000 3.490444
RightHandThumb1 -24.326973 -0.000000 -32.862282
LeftUpLeg 9.786251 42.932438 8.388689
LeftLeg -2.714757 -0.000000 0.000000
LeftFoot -33.705261 47.771487 -23.815761
LeftToeBase 21.282264 -0.000000 -0.000000
RightUpLeg -14.975813 23.224713 2.227388
RightLeg 0.817558 -0.000000 -0.000000
RightFoot -1.556807 9.653072 20.250413
RightToeBase 31.522569 -0.000000 -0.000000
634
root 18.453684 35.228837 -21.817999 -156.747251 63.112097 -160.802545
Spine -11.816950 -51.126764 6.366179
Head 20.971896 -39.016457 1.984300
LeftShoulder 7.346696 -39.068014 12.168554
LeftArm 30.513301 19.260935 -35.840473
LeftForeArm 15.398211 0.000000 -1.317673
LeftHand -11.129341 -0.000000 -0.533955
LeftHandThumb1 -26.253704 0.000000 33.147579
RightShoulder -16.743066 -12.879492 -14.374998
RightArm -17.435881 35.928346 19.811639
RightForeArm -29.702083 -0.000000 6.102146
RightHand -12.771644 -0.000000 3.445584
RightHandThumb1 -24.326973 -0.000000 -32.862282
LeftUpLeg 9.796881 42.825594 8.497262
LeftLeg -2.795987 -0.000000 0.000000
LeftFoot -33.513671 47.545448 -23.656610
LeftToeBase 21.326964 -0.000000 -0.000000
RightUpLeg -14.877184 23.156265 2.257147
RightLeg 0.753331 -0.000000 -0.000000
RightFoot -1.753775 9.395572 20.105063
RightToeBase 31.281908 -0.000000 -0.000000
635
root 18.488564 35.232837 -21.817016 -156.896197 62.678836 -160.976865
Spine -11.991260 -50.952840 6.524308
Head 20.886867 -38.710578 2.007967
LeftShoulder 7.245903 -39.046465 12.264254
LeftArm 30.341105 19.215991 -35.502511
LeftForeArm 15.484227 -0.000000 -1.363575
LeftHand -11.147821 -0.000000 -0.895610
LeftHandThumb1 -26.253704 0.000000 33.147579
RightShoulder -16.646564 -12.754764 -14.316875
RightArm -17.267081 35.799985 19.660153
RightForeArm -29.674319 -0.000000 6.029101
RightHand -12.656521 -0.000000 3.471857
RightHandThumb1 -24.326973 -0.000000 -32.862282
LeftUpLeg 9.766339 42.674154 8.616629
LeftLeg -2.855281 -0.000000 0.000000
LeftFoot -33.282996 47.357398 -23.463186
LeftToeBase 21.250621 -0.000000 -0.000000
RightUpLeg -14.790111 23.008824 2.342768
RightLeg 0.702402 -0.000000 -0.000000
RightFoot -1.908288 9.152942 20.008959
RightToeBase 31.046424 -0.000000 -0.000000
636
root 18.519430 35.237932 -21.817361 -157.121385 62.209056 -161.220680
Spine -12.099894 -50.745957 6.594898
Head 20.850400 -38.429552 2.043096
LeftShoulder 7.201042 -39.067250 12.374353
LeftArm 30.119480 19.239194 -35.200324
LeftForeArm 15.438447 -0.000000 -1.378431
LeftHand -11.193932 -0.000000 -0.846978
LeftHandThumb1 -26.253704 0.000000 33.147579
RightShoulder -16.561633 -12.589532 -14.252546
RightArm -17.244376 35.882333 19.398187
RightForeArm -29.879995 -0.000000 5.982595
RightHand -12.544212 0.000000 3.454498
RightHandThumb1 -24.326973 -0.000000 -32.862282
LeftUpLeg 9.745165 42.507613 8.714877
LeftLeg -2.943212 -0.000000 0.000000
LeftFoot -33.088350 47.134517 -23.332324
LeftToeBase 21.197273 -0.000000 -0.000000
RightUpLeg -14.690936 22.912214 2.379589
RightLeg 0.630202 -0.000000 -0.000000
RightFoot -2.078377 8.822766 19.970215
RightToeBase 30.824344 -0.000000 -0.000000
637
root 18.552035 35.242584 -21.816907 -157.332226 61.727538 -161.441466
Spine -12.229544 -50.565059 6.700894
Head 20.727373 -38.075008 2.115461
LeftShoulder 7.134363 -39.149875 12.453192
LeftArm 29.823560 19.281593 -34.867366
LeftForeArm 15.404692 -0.000000 -1.418532
LeftHand -11.055170 -0.000000 -0.986229
LeftHandThumb1 -26.253704 0.000000 33.147579
RightShoulder -16.459452 -12.432648 -14.194055
RightArm -17.155247 35.926279 19.206996
RightForeArm -30.012158 -0.000000 6.074443
RightHand -12.724657 -0.000000 3.375330
RightHandThumb1 -24.326973 -0.000000 -32.862282
LeftUpLeg 9.738946 42.367821 8.840861
LeftLeg -3.040489 -0.000000 0.000000
LeftFoot -32.814675 46.918992 -23.094362
LeftToeBase 21.165935 -0.000000 -0.000000
RightUpLeg -14.571996 22.769880 2.444499
RightLeg 0.546849 -0.000000 -0.000000
RightFoot -2.219760 8.527774 19.876786
RightToeBase 30.541181 -0.000000 -0.000000
638
root 18.584252 35.248479 -21.814018 -157.551487 61.236922 -161.690423
Spine -12.349978 -50.334613 6.757301
Head 20.628237 -37.729806 2.220898
LeftShoulder 7.044367 -39.208379 12.614704
LeftArm 29.506892 19.276999 -34.611021
LeftForeArm 15.435930 0.000000 -1.331321
LeftHand -11.443294 -0.000000 -0.953638
LeftHandThumb1 -26.253704 0.000000 33.147579
RightShoulder -16.442750 -12.443741 -14.032944
RightArm -16.894634 36.199960 19.023975
RightForeArm -30.286479 0.000000 5.952377
RightHand -12.605624 0.000000 3.341918
RightHandThumb1 -24.326973 -0.000000 -32.862282
LeftUpLeg 9.691468 42.189157 8.929633
LeftLeg -3.124406 -0.000000 0.000000
LeftFoot -32.628742 46.690935 -22.968599
LeftToeBase 21.181064 -0.000000 -0.000000
RightUpLeg -14.484581 22.637170 2.486217
RightLeg 0.481688 -0.000000 -0.000000
RightFoot -2.376198 8.215404 19.813566
RightToeBase 30.280103 -0.000000 -0.000000
639
root 18.618284 35.253672 -21.814005 -157.746862 60.726458 -161.907384
Spine -12.511697 -50.077433 6.883152
Head 20.531557 -37.356371 2.291601
LeftShoulder 6.966630 -39.272750 12.710301
LeftArm 29.205982 19.178081 -34.331724
LeftForeArm 15.442779 -0.000000 -1.448873
LeftHand -11.311789 -0.000000 -1.216197
LeftHandThumb1 -26.253704 0.000000 33.147579
RightShoulder -16.347860 -12.243140 -13.984320
RightArm -16.835177 35.910119 18.837292
RightForeArm -30.156539 -0.000000 6.012052
RightHand -12.555444 -0.000000 3.323201
RightHandThumb1 -24.326973 -0.000000 -32.862282
LeftUpLeg 9.643991 41.988878 9.036110
LeftLeg -3.196400 -0.000000 0.000000
LeftFoot -32.412232 46.477637 -22.801997
LeftToeBase 21.130649 -0.000000 -0.000000
RightUpLeg -14.373615 22.485495 2.553750
RightLeg 0.399399 -0.000000 -0.000000
RightFoot -2.535570 7.908952 19.746693
RightToeBase 30.100049 -0.000000 -0.000000
640
root 18.652711 35.258429 -21.815391 -157.961838 60.203548 -162.130570
Spine -12.639457 -49.802198 6.975563
Head 20.389650 -36.966079 2.399470
LeftShoulder 6.826185 -39.281949 12.850629
LeftArm 29.008472 19.383164 -33.887839
LeftForeArm 15.103331 -0.000000 -1.405770
LeftHand -11.447235 -0.000000 -1.273189
LeftHandThumb1 -26.253704 0.000000 33.147579
RightShoulder -16.322529 -12.211534 -13.909856
RightArm -16.633525 36.054343 18.697724
RightForeArm -30.289301 0.000000 6.000421
RightHand -12.646519 -0.000000 3.368980
RightHandThumb1 -24.326973 -0.000000 -32.862282
LeftUpLeg 9.633286 41.835297 9.164333
LeftLeg -3.298283 -0.000000 0.000000
LeftFoot -32.258551 46.194739 -22.723049
LeftToeBase 21.115384 -0.000000 -0.000000
RightUpLeg -14.241199 22.342255 2.616089
RightLeg 0.305628 -0.000000 -0.000000
RightFoot -2.703294 7.581773 19.659729
RightToeBase 29.798055 -0.000000 -0.000000
641
root 18.684740 35.263534 -21.813619 -158.166469 59.669238 -162.354161
Spine -12.769995 -49.555749 7.074751
Head 20.296823 -36.657019 2.393235
LeftShoulder 6.588127 -39.314510 13.062240
LeftArm 28.791341 19.287594 -33.618417
LeftForeArm 15.160196 0.000000 -1.508885
LeftHand -11.288949 -0.000000 -1.518846
LeftHandThumb1 -26.253704 0.000000 33.147579
RightShoulder -16.183315 -12.008434 -13.833855
RightArm -16.558513 35.814139 18.493659
RightForeArm -30.096511 -0.000000 5.985580
RightHand -12.497670 -0.000000 3.391586
RightHandThumb1 -24.326973 -0.000000 -32.862282
LeftUpLeg 9.594403 41.684311 9.278969
LeftLeg -3.393110 -0.000000 0.000000
LeftFoot -31.899705 45.980644 -22.383201
LeftToeBase 21.039775 -0.000000 -0.000000
RightUpLeg -14.133315 22.156392 2.683577
RightLeg 0.234129 -0.000000 -0.000000
RightFoot -2.847834 7.314596 19.594943
RightToeBase 29.608252 -0.000000 -0.000000
